<mxfile host="app.diagrams.net" agent="Mozilla/5.0 (Windows NT 10.0; Win64; x64) AppleWebKit/537.36 (KHTML, like Gecko) Chrome/132.0.0.0 Safari/537.36 Edg/132.0.0.0" version="26.0.6">
  <diagram id="kgpKYQtTHZ0yAKxKKP6v" name="Page-1">
    <mxGraphModel dx="-797" dy="-594" grid="1" gridSize="10" guides="1" tooltips="1" connect="1" arrows="1" fold="1" page="1" pageScale="1" pageWidth="850" pageHeight="1100" math="0" shadow="0">
      <root>
        <mxCell id="0" />
        <mxCell id="1" parent="0" />
        <mxCell id="od-dk-tfpZx7mSIlCZZn-13" value="&lt;font&gt;Symbol(WAKEUP_SYMBOL)&lt;/font&gt;" style="html=1;verticalAlign=bottom;endArrow=block;curved=0;rounded=0;fontSize=16;" parent="1" edge="1">
          <mxGeometry width="80" relative="1" as="geometry">
            <mxPoint x="2399.83" y="2171" as="sourcePoint" />
            <mxPoint x="2754.7449999999994" y="2171" as="targetPoint" />
          </mxGeometry>
        </mxCell>
        <mxCell id="od-dk-tfpZx7mSIlCZZn-12" value="&lt;font&gt;Symbol(WAKEUP_SYMBOL)&lt;/font&gt;" style="html=1;verticalAlign=bottom;endArrow=block;curved=0;rounded=0;fontSize=16;" parent="1" edge="1">
          <mxGeometry width="80" relative="1" as="geometry">
            <mxPoint x="2040" y="2143" as="sourcePoint" />
            <mxPoint x="2393.925" y="2143" as="targetPoint" />
            <Array as="points" />
          </mxGeometry>
        </mxCell>
        <mxCell id="od-dk-tfpZx7mSIlCZZn-1" value="&lt;font&gt;:FMU 1&lt;/font&gt;" style="shape=umlLifeline;perimeter=lifelinePerimeter;whiteSpace=wrap;html=1;container=1;dropTarget=0;collapsible=0;recursiveResize=0;outlineConnect=0;portConstraint=eastwest;newEdgeStyle={&quot;curved&quot;:0,&quot;rounded&quot;:0};size=80;fontSize=18;" parent="1" vertex="1">
          <mxGeometry x="1919" y="1999.13" width="241" height="240.87" as="geometry" />
        </mxCell>
        <mxCell id="LTeh_Qn0WR-T-UTZRkvy-1" value="" style="html=1;points=[[0,0,0,0,5],[0,1,0,0,-5],[1,0,0,0,5],[1,1,0,0,-5]];perimeter=orthogonalPerimeter;outlineConnect=0;targetShapes=umlLifeline;portConstraint=eastwest;newEdgeStyle={&quot;curved&quot;:0,&quot;rounded&quot;:0};fillColor=default;" parent="od-dk-tfpZx7mSIlCZZn-1" vertex="1">
          <mxGeometry x="115.5" y="110" width="10" height="110" as="geometry" />
        </mxCell>
        <mxCell id="od-dk-tfpZx7mSIlCZZn-2" value="&lt;font&gt;:FMU 2&lt;/font&gt;" style="shape=umlLifeline;perimeter=lifelinePerimeter;whiteSpace=wrap;html=1;container=1;dropTarget=0;collapsible=0;recursiveResize=0;outlineConnect=0;portConstraint=eastwest;newEdgeStyle={&quot;curved&quot;:0,&quot;rounded&quot;:0};size=80;fontSize=18;" parent="1" vertex="1">
          <mxGeometry x="2639.83" y="1999.56" width="240.83" height="240.44" as="geometry" />
        </mxCell>
        <mxCell id="LTeh_Qn0WR-T-UTZRkvy-2" value="" style="html=1;points=[[0,0,0,0,5],[0,1,0,0,-5],[1,0,0,0,5],[1,1,0,0,-5]];perimeter=orthogonalPerimeter;outlineConnect=0;targetShapes=umlLifeline;portConstraint=eastwest;newEdgeStyle={&quot;curved&quot;:0,&quot;rounded&quot;:0};fillColor=default;" parent="od-dk-tfpZx7mSIlCZZn-2" vertex="1">
          <mxGeometry x="115.4100000000002" y="109.57000000000016" width="10" height="110" as="geometry" />
        </mxCell>
        <mxCell id="od-dk-tfpZx7mSIlCZZn-3" value="&lt;font&gt;:Bus Simulation&lt;/font&gt;" style="shape=umlLifeline;perimeter=lifelinePerimeter;whiteSpace=wrap;html=1;container=1;dropTarget=0;collapsible=0;recursiveResize=0;outlineConnect=0;portConstraint=eastwest;newEdgeStyle={&quot;curved&quot;:0,&quot;rounded&quot;:0};size=80;fontSize=18;" parent="1" vertex="1">
          <mxGeometry x="2279.42" y="1999.13" width="240.83" height="240.87" as="geometry" />
        </mxCell>
        <mxCell id="od-dk-tfpZx7mSIlCZZn-4" value="" style="ellipse;whiteSpace=wrap;html=1;align=center;aspect=fixed;fillColor=none;strokeColor=none;resizable=0;perimeter=centerPerimeter;rotatable=0;allowArrows=0;points=[];outlineConnect=1;" parent="od-dk-tfpZx7mSIlCZZn-3" vertex="1">
          <mxGeometry x="180.46000000000004" y="200" width="10" height="10" as="geometry" />
        </mxCell>
        <mxCell id="od-dk-tfpZx7mSIlCZZn-5" value="" style="html=1;points=[[0,0,0,0,5],[0,1,0,0,-5],[1,0,0,0,5],[1,1,0,0,-5]];perimeter=orthogonalPerimeter;outlineConnect=0;targetShapes=umlLifeline;portConstraint=eastwest;newEdgeStyle={&quot;curved&quot;:0,&quot;rounded&quot;:0};fillColor=default;" parent="od-dk-tfpZx7mSIlCZZn-3" vertex="1">
          <mxGeometry x="115.41" y="110" width="10" height="110" as="geometry" />
        </mxCell>
      </root>
    </mxGraphModel>
  </diagram>
</mxfile>
